<mxfile host="Electron" agent="Mozilla/5.0 (Macintosh; Intel Mac OS X 10_15_7) AppleWebKit/537.36 (KHTML, like Gecko) draw.io/28.1.2 Chrome/138.0.7204.243 Electron/37.4.0 Safari/537.36" version="28.1.2">
  <diagram name="Seite-1" id="NrbdtOU8l5xmAe7ymhUr">
    <mxGraphModel dx="1410" dy="1943" grid="1" gridSize="10" guides="1" tooltips="1" connect="1" arrows="1" fold="1" page="1" pageScale="1" pageWidth="827" pageHeight="1169" math="0" shadow="0">
      <root>
        <mxCell id="0" />
        <mxCell id="1" parent="0" />
        <mxCell id="a6-sa-Pfjen3ggbp_8G2-21" value="domain modules" style="rounded=0;whiteSpace=wrap;html=1;labelPosition=center;verticalLabelPosition=middle;align=center;verticalAlign=top;" parent="1" vertex="1">
          <mxGeometry x="20" y="-1150" width="310" height="520" as="geometry" />
        </mxCell>
        <mxCell id="GLAPXgc1FcVHcfIpkhkd-29" style="edgeStyle=orthogonalEdgeStyle;shape=connector;rounded=0;orthogonalLoop=1;jettySize=auto;html=1;exitX=1;exitY=0.5;exitDx=0;exitDy=0;entryX=0;entryY=0.5;entryDx=0;entryDy=0;strokeColor=default;align=center;verticalAlign=middle;fontFamily=Helvetica;fontSize=11;fontColor=default;labelBackgroundColor=default;endArrow=classic;endFill=1;" parent="1" source="a6-sa-Pfjen3ggbp_8G2-22" target="_Fvoa-h9c9zU2s56-3a2-1" edge="1">
          <mxGeometry relative="1" as="geometry">
            <Array as="points">
              <mxPoint x="360" y="-910" />
              <mxPoint x="360" y="-890" />
            </Array>
          </mxGeometry>
        </mxCell>
        <mxCell id="a6-sa-Pfjen3ggbp_8G2-22" value="/buch" style="rounded=0;whiteSpace=wrap;html=1;labelPosition=center;verticalLabelPosition=top;align=center;verticalAlign=bottom;strokeColor=#3333FF;" parent="1" vertex="1">
          <mxGeometry x="60" y="-1080" width="230" height="340" as="geometry" />
        </mxCell>
        <mxCell id="a6-sa-Pfjen3ggbp_8G2-27" value="BuchRestController" style="rounded=0;whiteSpace=wrap;html=1;labelPosition=center;verticalLabelPosition=middle;align=center;verticalAlign=middle;" parent="1" vertex="1">
          <mxGeometry x="97" y="-1050" width="150" height="40" as="geometry" />
        </mxCell>
        <mxCell id="a6-sa-Pfjen3ggbp_8G2-29" value="BuchService" style="rounded=0;whiteSpace=wrap;html=1;labelPosition=center;verticalLabelPosition=middle;align=center;verticalAlign=middle;" parent="1" vertex="1">
          <mxGeometry x="97" y="-990" width="150" height="40" as="geometry" />
        </mxCell>
        <mxCell id="a6-sa-Pfjen3ggbp_8G2-30" value="BuchJpaRepository&lt;div&gt;Interface&lt;/div&gt;" style="rounded=0;whiteSpace=wrap;html=1;labelPosition=center;verticalLabelPosition=middle;align=center;verticalAlign=middle;" parent="1" vertex="1">
          <mxGeometry x="97" y="-930" width="150" height="40" as="geometry" />
        </mxCell>
        <mxCell id="a6-sa-Pfjen3ggbp_8G2-31" value="BuchJpaEntity" style="rounded=0;whiteSpace=wrap;html=1;labelPosition=center;verticalLabelPosition=middle;align=center;verticalAlign=middle;" parent="1" vertex="1">
          <mxGeometry x="97" y="-870" width="150" height="40" as="geometry" />
        </mxCell>
        <mxCell id="a6-sa-Pfjen3ggbp_8G2-34" value="BuchRestClient" style="rounded=0;whiteSpace=wrap;html=1;labelPosition=center;verticalLabelPosition=middle;align=center;verticalAlign=middle;" parent="1" vertex="1">
          <mxGeometry x="97" y="-810" width="150" height="40" as="geometry" />
        </mxCell>
        <mxCell id="GLAPXgc1FcVHcfIpkhkd-28" style="edgeStyle=orthogonalEdgeStyle;shape=connector;rounded=0;orthogonalLoop=1;jettySize=auto;html=1;exitX=1;exitY=0.5;exitDx=0;exitDy=0;entryX=0;entryY=0.5;entryDx=0;entryDy=0;strokeColor=default;align=center;verticalAlign=middle;fontFamily=Helvetica;fontSize=11;fontColor=default;labelBackgroundColor=default;endArrow=classic;endFill=1;" parent="1" source="_Fvoa-h9c9zU2s56-3a2-1" target="GLAPXgc1FcVHcfIpkhkd-1" edge="1">
          <mxGeometry relative="1" as="geometry" />
        </mxCell>
        <mxCell id="_Fvoa-h9c9zU2s56-3a2-1" value="/buch/infra" style="rounded=0;whiteSpace=wrap;html=1;labelPosition=center;verticalLabelPosition=middle;align=center;verticalAlign=top;strokeColor=#FF0000;" parent="1" vertex="1">
          <mxGeometry x="400" y="-990" width="230" height="200" as="geometry" />
        </mxCell>
        <mxCell id="_Fvoa-h9c9zU2s56-3a2-3" value="/buch/usecase" style="rounded=0;whiteSpace=wrap;html=1;labelPosition=center;verticalLabelPosition=middle;align=center;verticalAlign=top;strokeColor=#FF8000;" parent="1" vertex="1">
          <mxGeometry x="430" y="-950" width="170" height="130" as="geometry" />
        </mxCell>
        <mxCell id="_Fvoa-h9c9zU2s56-3a2-4" value="/buch/domain" style="rounded=0;whiteSpace=wrap;html=1;labelPosition=center;verticalLabelPosition=middle;align=center;verticalAlign=top;strokeColor=#009900;" parent="1" vertex="1">
          <mxGeometry x="460" y="-910" width="109" height="60" as="geometry" />
        </mxCell>
        <mxCell id="_Fvoa-h9c9zU2s56-3a2-19" value="/ausleihe" style="rounded=0;whiteSpace=wrap;html=1;labelPosition=center;verticalLabelPosition=top;align=center;verticalAlign=bottom;strokeColor=#3333FF;" parent="1" vertex="1">
          <mxGeometry x="70" y="-700" width="210" height="30" as="geometry" />
        </mxCell>
        <mxCell id="GLAPXgc1FcVHcfIpkhkd-1" value="/buch/infra" style="rounded=0;whiteSpace=wrap;html=1;labelPosition=center;verticalLabelPosition=middle;align=center;verticalAlign=top;strokeColor=#FF0000;" parent="1" vertex="1">
          <mxGeometry x="700" y="-1150" width="340" height="560" as="geometry" />
        </mxCell>
        <mxCell id="GLAPXgc1FcVHcfIpkhkd-24" style="edgeStyle=orthogonalEdgeStyle;shape=connector;rounded=0;orthogonalLoop=1;jettySize=auto;html=1;exitX=0.75;exitY=1;exitDx=0;exitDy=0;entryX=1;entryY=0.5;entryDx=0;entryDy=0;strokeColor=default;align=center;verticalAlign=middle;fontFamily=Helvetica;fontSize=11;fontColor=default;labelBackgroundColor=default;endArrow=classic;endFill=1;" parent="1" source="GLAPXgc1FcVHcfIpkhkd-3" target="GLAPXgc1FcVHcfIpkhkd-12" edge="1">
          <mxGeometry relative="1" as="geometry" />
        </mxCell>
        <mxCell id="GLAPXgc1FcVHcfIpkhkd-3" value="/buch/usecase" style="rounded=0;whiteSpace=wrap;html=1;labelPosition=center;verticalLabelPosition=middle;align=center;verticalAlign=top;strokeColor=#FF8000;" parent="1" vertex="1">
          <mxGeometry x="740" y="-1005" width="260" height="300" as="geometry" />
        </mxCell>
        <mxCell id="GLAPXgc1FcVHcfIpkhkd-4" value="/buch/domain" style="rounded=0;whiteSpace=wrap;html=1;labelPosition=center;verticalLabelPosition=middle;align=center;verticalAlign=top;strokeColor=#009900;" parent="1" vertex="1">
          <mxGeometry x="773" y="-960" width="190" height="225" as="geometry" />
        </mxCell>
        <mxCell id="GLAPXgc1FcVHcfIpkhkd-25" style="edgeStyle=orthogonalEdgeStyle;shape=connector;rounded=0;orthogonalLoop=1;jettySize=auto;html=1;exitX=0.5;exitY=1;exitDx=0;exitDy=0;entryX=0.25;entryY=0;entryDx=0;entryDy=0;strokeColor=default;align=center;verticalAlign=middle;fontFamily=Helvetica;fontSize=11;fontColor=default;labelBackgroundColor=default;endArrow=classic;endFill=1;" parent="1" source="GLAPXgc1FcVHcfIpkhkd-6" target="GLAPXgc1FcVHcfIpkhkd-3" edge="1">
          <mxGeometry relative="1" as="geometry" />
        </mxCell>
        <mxCell id="GLAPXgc1FcVHcfIpkhkd-6" value="BuchRestController" style="rounded=0;whiteSpace=wrap;html=1;labelPosition=center;verticalLabelPosition=middle;align=center;verticalAlign=middle;" parent="1" vertex="1">
          <mxGeometry x="744" y="-1095" width="150" height="40" as="geometry" />
        </mxCell>
        <mxCell id="GLAPXgc1FcVHcfIpkhkd-12" value="BuchRestClient" style="rounded=0;whiteSpace=wrap;html=1;labelPosition=center;verticalLabelPosition=middle;align=center;verticalAlign=middle;" parent="1" vertex="1">
          <mxGeometry x="744" y="-665" width="110" height="40" as="geometry" />
        </mxCell>
        <mxCell id="GLAPXgc1FcVHcfIpkhkd-17" value="&lt;span style=&quot;font-size: 12px; background-color: rgb(27, 29, 30);&quot;&gt;ddd onion&lt;/span&gt;&lt;div&gt;&lt;span style=&quot;font-size: 12px; background-color: rgb(27, 29, 30);&quot;&gt;start point&lt;/span&gt;&lt;/div&gt;" style="rounded=0;whiteSpace=wrap;html=1;fontFamily=Helvetica;fontSize=11;fontColor=default;labelBackgroundColor=default;dashed=1;" parent="1" vertex="1">
          <mxGeometry x="950" y="-1140" width="83" height="40" as="geometry" />
        </mxCell>
        <mxCell id="GLAPXgc1FcVHcfIpkhkd-21" style="edgeStyle=orthogonalEdgeStyle;shape=connector;rounded=0;orthogonalLoop=1;jettySize=auto;html=1;exitX=0.5;exitY=1;exitDx=0;exitDy=0;entryX=0.5;entryY=0;entryDx=0;entryDy=0;strokeColor=default;align=center;verticalAlign=middle;fontFamily=Helvetica;fontSize=11;fontColor=default;labelBackgroundColor=default;endArrow=classic;endFill=1;" parent="1" source="GLAPXgc1FcVHcfIpkhkd-18" target="GLAPXgc1FcVHcfIpkhkd-19" edge="1">
          <mxGeometry relative="1" as="geometry" />
        </mxCell>
        <mxCell id="GLAPXgc1FcVHcfIpkhkd-18" value="BuchService" style="rounded=0;whiteSpace=wrap;html=1;labelPosition=center;verticalLabelPosition=middle;align=center;verticalAlign=middle;" parent="1" vertex="1">
          <mxGeometry x="794" y="-915" width="150" height="40" as="geometry" />
        </mxCell>
        <mxCell id="GLAPXgc1FcVHcfIpkhkd-22" style="edgeStyle=orthogonalEdgeStyle;shape=connector;rounded=0;orthogonalLoop=1;jettySize=auto;html=1;exitX=0.5;exitY=1;exitDx=0;exitDy=0;entryX=0.5;entryY=0;entryDx=0;entryDy=0;strokeColor=default;align=center;verticalAlign=middle;fontFamily=Helvetica;fontSize=11;fontColor=default;labelBackgroundColor=default;endArrow=classic;endFill=1;" parent="1" source="GLAPXgc1FcVHcfIpkhkd-19" target="GLAPXgc1FcVHcfIpkhkd-20" edge="1">
          <mxGeometry relative="1" as="geometry" />
        </mxCell>
        <mxCell id="GLAPXgc1FcVHcfIpkhkd-19" value="BuchJpaRepository&lt;div&gt;Interface&lt;/div&gt;" style="rounded=0;whiteSpace=wrap;html=1;labelPosition=center;verticalLabelPosition=middle;align=center;verticalAlign=middle;" parent="1" vertex="1">
          <mxGeometry x="794" y="-855" width="150" height="40" as="geometry" />
        </mxCell>
        <mxCell id="GLAPXgc1FcVHcfIpkhkd-20" value="BuchJpaEntity" style="rounded=0;whiteSpace=wrap;html=1;labelPosition=center;verticalLabelPosition=middle;align=center;verticalAlign=middle;" parent="1" vertex="1">
          <mxGeometry x="794" y="-795" width="150" height="40" as="geometry" />
        </mxCell>
      </root>
    </mxGraphModel>
  </diagram>
</mxfile>
